<?xml version="1.0" standalone="no"?><svg xmlns="http://www.w3.org/2000/svg" viewBox="0 0 1440 320"><path fill="#fff" fill-opacity="1" d="M0,128L21.8,149.3C43.6,171,87,213,131,218.7C174.5,224,218,192,262,165.3C305.5,139,349,117,393,133.3C436.4,149,480,203,524,234.7C567.3,267,611,277,655,240C698.2,203,742,117,785,101.3C829.1,85,873,139,916,165.3C960,192,1004,192,1047,202.7C1090.9,213,1135,235,1178,250.7C1221.8,267,1265,277,1309,250.7C1352.7,224,1396,160,1418,128L1440,96L1440,0L1418.2,0C1396.4,0,1353,0,1309,0C1265.5,0,1222,0,1178,0C1134.5,0,1091,0,1047,0C1003.6,0,960,0,916,0C872.7,0,829,0,785,0C741.8,0,698,0,655,0C610.9,0,567,0,524,0C480,0,436,0,393,0C349.1,0,305,0,262,0C218.2,0,175,0,131,0C87.3,0,44,0,22,0L0,0Z"></path></svg>